<svg width="1366" height="768" viewBox="0 0 1366 768" fill="none" xmlns="http://www.w3.org/2000/svg">
<rect opacity="0.2" width="1366" height="768" fill="url(#paint0_linear)"/>
<path opacity="0.4" d="M1279.61 164.41C1134.83 95.5175 1070.97 283.909 971.138 314.906C871.394 360.253 775.215 307.176 715.828 352.674C621.694 424.794 663.01 550.963 723.274 604.05C809.694 680.18 963.272 652.78 1122.01 570.462C1320.89 467.329 1406.55 224.817 1279.61 164.41Z" fill="#98C3E8"/>
<path opacity="0.2" d="M798.5 239.5C803.5 252 788.5 271.5 767 278C748.5 283.593 730.5 283 725.5 270C721.077 258.5 735 246 751 239.5C767 233 793.5 227 798.5 239.5Z" fill="#98C3E8"/>
<path opacity="0.2" d="M962 214C958.109 204.06 971.816 180.866 988.802 175.799C1003.42 171.438 1017.11 161.164 1021 171.5C1024.44 180.644 1013.91 201.325 1001.26 206.415C988.612 211.505 965.891 223.94 962 214Z" fill="#98C3E8"/>
<path opacity="0.2" d="M950.792 706.215C946.901 696.276 958.816 680.866 975.802 675.799C990.419 671.438 1004.61 671.985 1008.5 682.321C1011.94 691.465 1000.91 701.325 988.26 706.415C975.612 711.505 954.684 716.155 950.792 706.215Z" fill="#98C3E8"/>
<path opacity="0.2" d="M1126.57 655.55C1118.48 636.52 1144.28 594.235 1179.57 584.55C1209.94 576.216 1258.98 593.26 1267.07 613.05C1274.23 630.555 1227.35 627.66 1201.07 637.393C1174.79 647.126 1134.67 674.579 1126.57 655.55Z" fill="#98C3E8"/>
<mask id="mask0" mask-type="alpha" maskUnits="userSpaceOnUse" x="675" y="153" width="648" height="490">
<path d="M1261.96 165.944C1121.39 103.869 1065.04 286.479 970.141 319.024C875.694 365.339 782.118 317.084 726.364 362.416C637.988 434.272 680.861 554.217 740.006 603.486C824.824 674.139 971.342 643.544 1121.39 560.093C1309.38 455.539 1385.22 220.374 1261.96 165.944Z" fill="#98C3E8"/>
</mask>
<g mask="url(#mask0)">
<rect x="569.917" y="72.4017" width="805.162" height="681.485" fill="url(#paint1_linear)"/>
<path d="M671.509 289.467C745.336 326.697 827.998 430.904 827.998 480.662C827.998 541.869 698.221 635.678 638.696 688.893L1146.65 721.705C1128.57 640.726 1082.89 460.7 1110.69 420.716C1146.65 368.974 1292.21 381.594 1373.82 391.059L1395.9 160.742C1356.15 177.359 1267.18 225.105 1218.59 212.485C1173.62 200.803 1087.34 150.436 1050.74 118.465" stroke="white" stroke-opacity="0.2" stroke-width="15"/>
<path d="M861.441 232.677C881.634 337.844 936.531 530.637 994.583 460.469C1067.15 372.76 1124.57 259.179 1178.84 334.269C1222.25 394.34 1286.11 512.843 1312.61 564.585" stroke="white" stroke-opacity="0.2" stroke-width="15"/>
<path fill-rule="evenodd" clip-rule="evenodd" d="M1089 294C1089 298.418 1085.42 302 1081 302C1076.58 302 1073 298.418 1073 294C1073 289.582 1076.58 286 1081 286C1085.42 286 1089 289.582 1089 294ZM758 467C762.418 467 766 463.418 766 459C766 454.582 762.418 451 758 451C753.582 451 750 454.582 750 459C750 463.418 753.582 467 758 467ZM932 569C936.418 569 940 565.418 940 561C940 556.582 936.418 553 932 553C927.582 553 924 556.582 924 561C924 565.418 927.582 569 932 569ZM1206 451C1210.42 451 1214 447.418 1214 443C1214 438.582 1210.42 435 1206 435C1201.58 435 1198 438.582 1198 443C1198 447.418 1201.58 451 1206 451Z" fill="white" fill-opacity="0.6"/>
<circle cx="728" cy="546" r="18" stroke="white" stroke-opacity="0.4" stroke-width="8"/>
<circle cx="1308" cy="269" r="18" stroke="white" stroke-opacity="0.4" stroke-width="8"/>
<circle cx="1058" cy="502" r="18" stroke="white" stroke-opacity="0.4" stroke-width="8"/>
</g>
<g filter="url(#filter0_d)">
<rect x="1108" y="223" width="88" height="88" rx="10" fill="white"/>
</g>
<path d="M1148 283V271H1156V283H1166V267H1172L1152 249L1132 267H1138V283H1148Z" fill="#5A98D0"/>
<g filter="url(#filter1_d)">
<path d="M1095.42 133H1067.99C1064.21 133 1061.14 136.048 1061.14 139.807V167.049C1061.14 170.809 1064.21 173.856 1067.99 173.856H1095.42C1099.21 173.856 1102.28 170.809 1102.28 167.049V139.807C1102.28 136.048 1099.21 133 1095.42 133Z" fill="#56CCF2"/>
</g>
<path d="M1092 152H1087.83L1091.07 148.76L1089.66 147.34L1085 152H1083V150L1087.66 145.34L1086.24 143.93L1083 147.17V143H1081V147.17L1077.76 143.93L1076.34 145.34L1081 150V152H1079L1074.34 147.34L1072.93 148.76L1076.17 152H1072V154H1076.17L1072.93 157.24L1074.34 158.66L1079 154H1081V156L1076.34 160.66L1077.76 162.07L1081 158.83V163H1083V158.83L1086.24 162.07L1087.66 160.66L1083 156V154H1085L1089.66 158.66L1091.07 157.24L1087.83 154H1092V152Z" fill="white"/>
<g filter="url(#filter2_d)">
<path d="M1269.28 236H1241.85C1238.07 236 1235 239.048 1235 242.807V270.049C1235 273.809 1238.07 276.856 1241.85 276.856H1269.28C1273.07 276.856 1276.14 273.809 1276.14 270.049V242.807C1276.14 239.048 1273.07 236 1269.28 236Z" fill="#F2C94C"/>
</g>
<path d="M1265 253C1265 248 1261 244 1256 244C1251 244 1247 248 1247 253C1247 256.1 1248.6 258.9 1251 260.5V263C1251 264.3 1251.8 265.4 1253 265.8V266C1253 267.7 1254.3 269 1256 269C1257.7 269 1259 267.7 1259 266V265.8C1260.2 265.4 1261 264.3 1261 263V260.5C1263.4 258.9 1265 256.1 1265 253ZM1249 253C1249 249.1 1252.1 246 1256 246C1259.9 246 1263 249.1 1263 253C1263 256.5 1260.4 259.4 1257 259.9V257.4L1258.7 255.7C1259.1 255.3 1259.1 254.7 1258.7 254.3C1258.3 253.9 1257.7 253.9 1257.3 254.3L1256 255.6L1254.7 254.3C1254.3 253.9 1253.7 253.9 1253.3 254.3C1252.9 254.7 1252.9 255.3 1253.3 255.7L1255 257.4V259.9C1251.6 259.4 1249 256.5 1249 253ZM1256 267C1255.4 267 1255 266.6 1255 266H1257C1257 266.6 1256.6 267 1256 267ZM1259 263C1259 263.6 1258.6 264 1258 264H1254C1253.4 264 1253 263.6 1253 263V261.5C1253.9 261.8 1254.9 262 1256 262C1257.1 262 1258.1 261.8 1259 261.5V263Z" fill="white"/>
<g filter="url(#filter3_d)">
<path d="M1049.28 236H1021.85C1018.07 236 1015 239.048 1015 242.807V270.049C1015 273.809 1018.07 276.856 1021.85 276.856H1049.28C1053.07 276.856 1056.14 273.809 1056.14 270.049V242.807C1056.14 239.048 1053.07 236 1049.28 236Z" fill="#F58A8A"/>
</g>
<path d="M1042 252H1041V250C1041 247.24 1038.76 245 1036 245C1033.24 245 1031 247.24 1031 250V252H1030C1028.9 252 1028 252.9 1028 254V264C1028 265.1 1028.9 266 1030 266H1042C1043.1 266 1044 265.1 1044 264V254C1044 252.9 1043.1 252 1042 252ZM1036 261C1034.9 261 1034 260.1 1034 259C1034 257.9 1034.9 257 1036 257C1037.1 257 1038 257.9 1038 259C1038 260.1 1037.1 261 1036 261ZM1039.1 252H1032.9V250C1032.9 248.29 1034.29 246.9 1036 246.9C1037.71 246.9 1039.1 248.29 1039.1 250V252Z" fill="white"/>
<g filter="url(#filter4_d)">
<path d="M1223.28 133H1195.85C1192.07 133 1189 136.048 1189 139.807V167.049C1189 170.809 1192.07 173.856 1195.85 173.856H1223.28C1227.07 173.856 1230.14 170.809 1230.14 167.049V139.807C1230.14 136.048 1227.07 133 1223.28 133Z" fill="#6FCF97"/>
</g>
<path d="M1215.31 147.896H1198.98V158.103H1215.31V147.896Z" fill="white"/>
<path d="M1219.71 149.928L1216.11 151.443V154.6L1219.71 156.115H1221.02V149.928H1219.71Z" fill="white"/>
<path d="M1155.39 306C1154.27 310.364 1155.79 312.88 1156.98 313.5C1159.34 314.73 1161.98 316.27 1161.98 316.27C1161.98 316.27 1178.41 344.414 1183.17 346.429C1188.72 348.778 1201.42 350 1201.42 350L1206.98 338.889C1206.98 338.889 1194.28 336.111 1188.72 334.921C1184.98 334.118 1168.49 316.27 1168.49 316.27L1171.66 310.714H1165.71C1161.34 307.54 1158.98 301 1158.98 301C1158.98 301 1156.15 303.02 1155.39 306Z" fill="url(#paint2_linear)"/>
<path d="M1220.48 356.5C1218.48 354.5 1206.98 351.333 1201.48 350L1206.98 339C1209.14 339 1215.48 338.5 1223.48 336.5C1233.48 334 1236.98 325 1248.48 334.5C1257.68 342.1 1273.64 375.333 1280.48 391C1269.73 401.243 1262.59 404.569 1248.48 407.5C1247.64 405.833 1245.18 400.2 1241.98 391C1237.98 379.5 1225.48 379.5 1223.48 375.5C1221.48 371.5 1222.98 359 1220.48 356.5Z" fill="url(#paint3_linear)"/>
<path d="M1256.48 470C1252.88 462 1252.81 424 1251.48 406.5C1263.67 404.103 1270.11 401.016 1280.48 390.5C1280.48 390.5 1297.48 398.5 1296.48 417C1295.48 435.5 1303 444.841 1307.48 451C1311.48 456.5 1320.98 468.167 1325.98 476L1320.98 485.5C1315.48 479.667 1299.38 467.8 1290.98 461C1282.58 454.2 1279.81 437.167 1278.48 428C1277.64 437.667 1273.48 455.4 1275.48 461C1277.48 466.6 1298.98 483.5 1307.48 492L1304.48 500.5C1289.98 493.667 1260.08 478 1256.48 470Z" fill="url(#paint4_linear)"/>
<path d="M1214.48 322.5C1214.88 320.9 1214.31 316.167 1214.98 314.5C1219.78 315.3 1222.48 318.667 1223.48 320C1224.48 319.833 1225.91 319.369 1226.48 320.5C1226.98 321.5 1226.48 323.5 1224.98 325L1228.48 334.5C1226.82 335.577 1225.81 335.939 1223.98 336.5C1224.98 334 1224.48 332 1223.98 331C1220.38 333.8 1218.98 333.667 1217.48 333.5L1215.98 327L1213.48 327.5C1213.98 326.667 1214.08 324.1 1214.48 322.5Z" fill="url(#paint5_linear)"/>
<path d="M1223.48 320C1221.48 317.2 1216.64 315.167 1214.48 314.5C1210.48 311.5 1212.48 305 1221.98 302C1231.48 299 1235.48 307 1237.48 309C1239.48 311 1240.48 317.5 1249.48 321.5C1258.48 325.5 1257.98 320.5 1263.48 320.5C1268.98 320.5 1271.48 324 1270.48 327C1269.48 330 1268.98 333.5 1274.98 337.5C1280.98 341.5 1275.48 347 1274.98 353C1274.48 359 1266.48 356 1257.98 356C1249.48 356 1250.98 356 1249.48 350.5C1247.98 345 1245.48 343 1242.48 341.5C1239.48 340 1232.48 341 1230.98 339.5C1229.78 338.3 1226.48 329.333 1224.98 325C1225.64 324 1226.88 321.7 1226.48 320.5C1226.08 319.3 1224.31 319.667 1223.48 320Z" fill="#F2994A"/>
<path d="M1204.48 380.5L1228.48 379C1231.28 379.4 1235.98 382.833 1237.98 384.5C1237.31 386 1235.38 389 1232.98 389C1230.58 389 1212.98 386 1204.48 384.5H1202.48V377L1204.48 380.5Z" fill="url(#paint6_linear)"/>
<path d="M1202.48 388V371H1193.98V388H1202.48Z" fill="#F2C94C"/>
<path d="M1320.98 514.5C1318.58 514.1 1308.81 504.833 1304.48 500.5L1307.48 492C1309.48 492.833 1313.68 494.3 1314.48 495.5C1315.48 497 1323.98 515 1320.98 514.5Z" fill="#5A98D0"/>
<path d="M1332.98 503.5C1331.78 501.5 1324.48 491.833 1320.98 485.5L1325.98 476C1328.31 478 1328.48 478 1330.98 481.5C1332.14 483.127 1334.48 506 1332.98 503.5Z" fill="#5A98D0"/>
<path opacity="0.2" d="M1281.48 413.5L1278.48 428.5C1278.98 434 1281.98 447.5 1286.98 457C1280.98 438 1282.98 423.833 1281.48 413.5Z" fill="black"/>
<path d="M851 638L849.5 633L857.5 631.5C861.333 633.5 868.7 637.9 867.5 639.5C867.1 640.3 856.333 638.833 851 638Z" fill="#D06262"/>
<path d="M810.5 591L815 598.5C814.667 603.667 813.6 613.8 812 613C810.4 612.2 805.333 599.333 803 593L810.5 591Z" fill="#D06262"/>
<path d="M784.328 545.993C778.999 540.458 774.156 530.024 772.401 525.5C777.529 523.019 788.924 517.352 793.484 514.522C798.044 511.693 806.693 505.274 810.447 502.418C812.637 504.392 819.01 509.262 826.981 512.948C847.452 522.613 859.145 535.095 863.185 546.272C866.418 555.213 853.175 568.449 845.651 573.994C841.292 566.586 838.669 563.59 833.501 556.534L835.257 548.338L824.933 545.271C826.459 547.307 831.461 554.01 839.258 564.54C853.328 582.125 858.2 612.172 858.878 624.997C856.253 625.573 849.79 626.636 844.937 626.279C844.364 620.05 836.559 606.211 829.106 593.959C827.59 595.773 825.489 597.942 824.265 598.054C818.07 596.214 816.151 588.089 815.966 584.256L820.648 580.335C820.006 579.31 819.406 578.349 818.856 577.463C811.193 565.113 790.99 552.912 784.328 545.993Z" fill="#1F3F68"/>
<path d="M812.347 501.239C797.813 512.451 767.728 532.557 763.662 523.291C758.58 511.708 759.576 511.616 756.766 508.36C753.955 505.103 753.269 497.635 751.998 494.739C751.359 493.284 746.211 486.917 742.095 479.08C742.095 479.08 741.972 478.853 741.763 478.439C738.841 472.737 736.533 466.32 736.913 460.477C737.203 451.914 743.716 446.391 743.716 446.391C747.598 442.253 751.239 441.558 752.5 441.669L752.523 441.685C755.558 443.749 760.045 446.8 761.634 446.654C763.228 446.508 765.5 443.5 767 442C774.606 442.807 776.929 440.859 782.874 441.669C790.205 442.669 810 453 825.5 425.5C827.04 425.861 830.511 427.229 833 427C824.5 452 817 459.781 810 462.231C804.628 464.112 800.395 464.636 797.052 464.602C796.438 467.863 795.623 473.224 794.263 478.691C797.058 483.807 800.012 488.505 802.332 490.612C808.358 496.083 815.163 499.102 812.347 501.239Z" fill="white"/>
<path d="M812.062 530.89L825.477 545.723L835.258 548.338L834.674 552.911C836.919 550.027 839.797 543.101 833.346 538.472C826.895 533.844 816.469 531.489 812.062 530.89Z" fill="black" fill-opacity="0.2"/>
<path d="M820.625 580.313L828.923 594.111L827.567 595.742C826.342 593.344 823.126 591.129 820.408 588.869C818.233 587.061 817.777 583.922 817.821 582.579L820.625 580.313Z" fill="black" fill-opacity="0.2"/>
<path d="M782.067 505.028C767.87 503.522 750.604 488.675 743.746 481.439C759.604 495.546 778.032 499.374 783.87 497.331C788.54 495.696 792.12 483.527 794.001 478.5L797.799 485.003C798.471 492.306 796.265 506.534 782.067 505.028Z" fill="black" fill-opacity="0.2"/>
<path d="M776.967 476.877C773.82 477.452 765.674 470.551 762.019 467.206C775.474 477.014 775.5 472 792.5 460C791.762 461.072 784.5 475.5 776.967 476.877Z" fill="black" fill-opacity="0.2"/>
<path d="M797.5 462.5C795.787 462.156 794.296 461.576 792.5 460L794 456.5C793.833 455.667 793.6 453.8 794 453C794.4 452.2 796 451.333 796.5 451L796 453.5L798.5 450.5L802.5 454L802 457.5L799 459L797.5 462.5Z" fill="#F2994A"/>
<path d="M834 422L833 427C831.4 427.4 827.167 426.167 825.5 425.5C826 424 827.6 420 828 418C828.4 416 832.167 413.833 834 413H836L834 416.5V422Z" fill="#F2994A"/>
<path d="M750 431.5C750.8 433.1 753 436.5 754 438C754.666 436.667 755.6 433.7 754 432.5C752.4 431.3 751 429.333 750.5 428.5C751 428.167 752.3 427.5 753.5 427.5C752.7 421.5 756.833 419.333 759 419L767.5 418.5L768 421C771.166 418 776.9 411.5 774.5 409.5C771.5 407 762.5 413.5 756.5 413.5C750.5 413.5 748 416.5 746.5 419.5C745 422.5 749 429.5 750 431.5Z" fill="#316099"/>
<path d="M761.5 447C759.9 447 755.333 443.833 752.5 442C753.833 441.333 754.5 438.8 754.5 438C754.5 437 755.5 433 754.5 432.5C753.5 432 750.5 430 750.5 429C750.5 428.2 752.5 428 753.5 428C753.167 426.333 753.1 422.5 755.5 420.5C757.9 418.5 764.5 418.333 767.5 418.5C767.667 419.167 768.3 422 769.5 428C770.7 434 768 436.833 766.5 437.5L767 442C765.833 443.5 763.1 447 761.5 447Z" fill="#F2994A"/>
<path d="M857.5 631.5L857 625.5C853.469 626.446 851.371 626.613 847.5 626.5L849.5 633L857.5 631.5Z" fill="#98C3E8"/>
<path d="M815 598.5L821 596.5C818.322 593.423 817.421 591.668 816.5 588.5L810.5 591L815 598.5Z" fill="#98C3E8"/>
<rect opacity="0.8" x="842" y="351" width="266.284" height="189.301" rx="5" fill="url(#paint7_linear)"/>
<path d="M842 356C842 353.239 844.239 351 847 351H918.983V540.301H847C844.239 540.301 842 538.063 842 535.301V356Z" fill="white"/>
<circle cx="854" cy="363" r="4" fill="#FA9595"/>
<circle cx="867" cy="363" r="4" fill="#FDF397"/>
<circle cx="879" cy="363" r="4" fill="#C1FEBB"/>
<path opacity="0.4" fill-rule="evenodd" clip-rule="evenodd" d="M851 457H909V464H851V457ZM851 471H909V478H851V471ZM890 487H851V494H890V487Z" fill="#5A98D0"/>
<path opacity="0.1" fill-rule="evenodd" clip-rule="evenodd" d="M1028 376H1086V383H1028V376ZM1028 390H1086V397H1028V390ZM1067 406H1028V413H1067V406Z" fill="black"/>
<g filter="url(#filter5_d)">
<rect x="834" y="377" width="81" height="50" rx="5" fill="#56CCF2"/>
</g>
<path d="M858.344 399.136C857.688 398.24 856.76 397.792 855.544 397.792C854.44 397.792 853.512 398.192 852.728 399.008C851.944 399.824 851.56 400.816 851.56 402C851.56 403.168 851.944 404.176 852.728 404.992C853.512 405.808 854.44 406.208 855.544 406.208C856.76 406.208 857.688 405.76 858.344 404.848V406H860.072V398H858.344V399.136ZM854.008 403.84C853.528 403.344 853.288 402.736 853.288 402C853.288 401.264 853.528 400.656 854.008 400.176C854.488 399.68 855.096 399.44 855.816 399.44C856.536 399.44 857.144 399.68 857.624 400.176C858.104 400.656 858.344 401.264 858.344 402C858.344 402.736 858.104 403.344 857.624 403.84C857.144 404.32 856.536 404.56 855.816 404.56C855.096 404.56 854.488 404.32 854.008 403.84ZM867.078 394.592C864.71 394.448 863.462 395.648 863.462 397.84V398H862.246V399.664H863.462V406H865.19V399.664H867.078V398H865.19V397.84C865.19 396.672 865.814 396.144 867.078 396.256V394.592ZM870.617 398H868.889V406H870.617V401.968C870.617 401.152 870.857 400.56 871.353 400.208C871.849 399.84 872.425 399.68 873.081 399.728V397.856C871.881 397.856 871.049 398.352 870.617 399.344V398ZM876.79 396.48C877.238 396.032 877.238 395.36 876.806 394.928C876.374 394.48 875.67 394.48 875.238 394.928C874.806 395.36 874.806 396.032 875.238 396.48C875.686 396.912 876.358 396.912 876.79 396.48ZM876.886 406V398H875.158V406H876.886ZM886.028 399.136C885.372 398.24 884.444 397.792 883.228 397.792C882.124 397.792 881.196 398.192 880.412 399.008C879.628 399.824 879.244 400.816 879.244 402C879.244 403.168 879.628 404.176 880.412 404.992C881.196 405.808 882.124 406.208 883.228 406.208C884.444 406.208 885.372 405.76 886.028 404.848V406H887.756V398H886.028V399.136ZM881.692 403.84C881.212 403.344 880.972 402.736 880.972 402C880.972 401.264 881.212 400.656 881.692 400.176C882.172 399.68 882.78 399.44 883.5 399.44C884.22 399.44 884.828 399.68 885.308 400.176C885.788 400.656 886.028 401.264 886.028 402C886.028 402.736 885.788 403.344 885.308 403.84C884.828 404.32 884.22 404.56 883.5 404.56C882.78 404.56 882.172 404.32 881.692 403.84ZM894.779 397.792C893.643 397.792 892.827 398.208 892.299 399.024V398H890.571V406H892.299V401.712C892.299 400.16 893.115 399.408 894.331 399.408C895.435 399.408 896.123 400.064 896.123 401.264V406H897.851V401.088C897.851 399.04 896.619 397.792 894.779 397.792Z" fill="white"/>
<rect x="936" y="369" width="79" height="77" rx="5" fill="#EB5757"/>
<g clip-path="url(#clip0)">
<path d="M967 394V422L989 408L967 394Z" fill="white"/>
</g>
<g filter="url(#filter6_d)">
<rect x="936" y="459" width="154" height="63" rx="5" fill="#6FCF97"/>
</g>
<path d="M949.5 504C959 497.5 963 489 981 489C999 489 1000.58 499 1011.5 499C1024.5 499 1037 479.5 1051 479.5C1065 479.5 1068.5 489.5 1076 490" stroke="black" stroke-opacity="0.1" stroke-width="2" stroke-linecap="round" stroke-linejoin="round"/>
<path d="M949 504.5C958.5 498 961 479 979 479C997 479 1001.08 495.5 1012 495.5C1025 495.5 1036.5 468.5 1050.5 468.5C1064.5 468.5 1069 489.5 1076.5 490" stroke="white" stroke-width="2" stroke-linecap="round" stroke-linejoin="round"/>
<defs>
<filter id="filter0_d" x="1058" y="173" width="188" height="188" filterUnits="userSpaceOnUse" color-interpolation-filters="sRGB">
<feFlood flood-opacity="0" result="BackgroundImageFix"/>
<feColorMatrix in="SourceAlpha" type="matrix" values="0 0 0 0 0 0 0 0 0 0 0 0 0 0 0 0 0 0 127 0" result="hardAlpha"/>
<feOffset/>
<feGaussianBlur stdDeviation="25"/>
<feColorMatrix type="matrix" values="0 0 0 0 0.0627451 0 0 0 0 0.439216 0 0 0 0 0.694118 0 0 0 0.25 0"/>
<feBlend mode="normal" in2="BackgroundImageFix" result="effect1_dropShadow"/>
<feBlend mode="normal" in="SourceGraphic" in2="effect1_dropShadow" result="shape"/>
</filter>
<filter id="filter1_d" x="1051.14" y="123" width="71.1381" height="70.8561" filterUnits="userSpaceOnUse" color-interpolation-filters="sRGB">
<feFlood flood-opacity="0" result="BackgroundImageFix"/>
<feColorMatrix in="SourceAlpha" type="matrix" values="0 0 0 0 0 0 0 0 0 0 0 0 0 0 0 0 0 0 127 0" result="hardAlpha"/>
<feOffset dx="5" dy="5"/>
<feGaussianBlur stdDeviation="7.5"/>
<feColorMatrix type="matrix" values="0 0 0 0 0 0 0 0 0 0 0 0 0 0 0 0 0 0 0.15 0"/>
<feBlend mode="normal" in2="BackgroundImageFix" result="effect1_dropShadow"/>
<feBlend mode="normal" in="SourceGraphic" in2="effect1_dropShadow" result="shape"/>
</filter>
<filter id="filter2_d" x="1225" y="226" width="71.1381" height="70.8561" filterUnits="userSpaceOnUse" color-interpolation-filters="sRGB">
<feFlood flood-opacity="0" result="BackgroundImageFix"/>
<feColorMatrix in="SourceAlpha" type="matrix" values="0 0 0 0 0 0 0 0 0 0 0 0 0 0 0 0 0 0 127 0" result="hardAlpha"/>
<feOffset dx="5" dy="5"/>
<feGaussianBlur stdDeviation="7.5"/>
<feColorMatrix type="matrix" values="0 0 0 0 0 0 0 0 0 0 0 0 0 0 0 0 0 0 0.15 0"/>
<feBlend mode="normal" in2="BackgroundImageFix" result="effect1_dropShadow"/>
<feBlend mode="normal" in="SourceGraphic" in2="effect1_dropShadow" result="shape"/>
</filter>
<filter id="filter3_d" x="1005" y="226" width="71.1381" height="70.8561" filterUnits="userSpaceOnUse" color-interpolation-filters="sRGB">
<feFlood flood-opacity="0" result="BackgroundImageFix"/>
<feColorMatrix in="SourceAlpha" type="matrix" values="0 0 0 0 0 0 0 0 0 0 0 0 0 0 0 0 0 0 127 0" result="hardAlpha"/>
<feOffset dx="5" dy="5"/>
<feGaussianBlur stdDeviation="7.5"/>
<feColorMatrix type="matrix" values="0 0 0 0 0 0 0 0 0 0 0 0 0 0 0 0 0 0 0.15 0"/>
<feBlend mode="normal" in2="BackgroundImageFix" result="effect1_dropShadow"/>
<feBlend mode="normal" in="SourceGraphic" in2="effect1_dropShadow" result="shape"/>
</filter>
<filter id="filter4_d" x="1179" y="123" width="71.1381" height="70.8561" filterUnits="userSpaceOnUse" color-interpolation-filters="sRGB">
<feFlood flood-opacity="0" result="BackgroundImageFix"/>
<feColorMatrix in="SourceAlpha" type="matrix" values="0 0 0 0 0 0 0 0 0 0 0 0 0 0 0 0 0 0 127 0" result="hardAlpha"/>
<feOffset dx="5" dy="5"/>
<feGaussianBlur stdDeviation="7.5"/>
<feColorMatrix type="matrix" values="0 0 0 0 0 0 0 0 0 0 0 0 0 0 0 0 0 0 0.15 0"/>
<feBlend mode="normal" in2="BackgroundImageFix" result="effect1_dropShadow"/>
<feBlend mode="normal" in="SourceGraphic" in2="effect1_dropShadow" result="shape"/>
</filter>
<filter id="filter5_d" x="829" y="372" width="101" height="70" filterUnits="userSpaceOnUse" color-interpolation-filters="sRGB">
<feFlood flood-opacity="0" result="BackgroundImageFix"/>
<feColorMatrix in="SourceAlpha" type="matrix" values="0 0 0 0 0 0 0 0 0 0 0 0 0 0 0 0 0 0 127 0" result="hardAlpha"/>
<feOffset dx="5" dy="5"/>
<feGaussianBlur stdDeviation="5"/>
<feColorMatrix type="matrix" values="0 0 0 0 0.0627451 0 0 0 0 0.439216 0 0 0 0 0.694118 0 0 0 0.2 0"/>
<feBlend mode="normal" in2="BackgroundImageFix" result="effect1_dropShadow"/>
<feBlend mode="normal" in="SourceGraphic" in2="effect1_dropShadow" result="shape"/>
</filter>
<filter id="filter6_d" x="926" y="453" width="174" height="83" filterUnits="userSpaceOnUse" color-interpolation-filters="sRGB">
<feFlood flood-opacity="0" result="BackgroundImageFix"/>
<feColorMatrix in="SourceAlpha" type="matrix" values="0 0 0 0 0 0 0 0 0 0 0 0 0 0 0 0 0 0 127 0" result="hardAlpha"/>
<feOffset dy="4"/>
<feGaussianBlur stdDeviation="5"/>
<feColorMatrix type="matrix" values="0 0 0 0 0.435294 0 0 0 0 0.811765 0 0 0 0 0.592157 0 0 0 0.2 0"/>
<feBlend mode="normal" in2="BackgroundImageFix" result="effect1_dropShadow"/>
<feBlend mode="normal" in="SourceGraphic" in2="effect1_dropShadow" result="shape"/>
</filter>
<linearGradient id="paint0_linear" x1="683" y1="768" x2="683" y2="529" gradientUnits="userSpaceOnUse">
<stop offset="0.283925" stop-color="#98C3E8"/>
<stop offset="1" stop-color="#98C3E8" stop-opacity="0"/>
</linearGradient>
<linearGradient id="paint1_linear" x1="1030.62" y1="26.6813" x2="992.792" y2="697.507" gradientUnits="userSpaceOnUse">
<stop stop-color="#D1ECFF"/>
<stop offset="1" stop-color="#1070B1"/>
</linearGradient>
<linearGradient id="paint2_linear" x1="1214.74" y1="313.576" x2="1162.96" y2="347.395" gradientUnits="userSpaceOnUse">
<stop stop-color="#FFF8E1"/>
<stop offset="1" stop-color="#FFCC80"/>
</linearGradient>
<linearGradient id="paint3_linear" x1="1240.98" y1="330.241" x2="1240.98" y2="407.5" gradientUnits="userSpaceOnUse">
<stop stop-color="#AF6CED"/>
<stop offset="1" stop-color="#5E199D"/>
</linearGradient>
<linearGradient id="paint4_linear" x1="1288.73" y1="390.5" x2="1288.73" y2="500.5" gradientUnits="userSpaceOnUse">
<stop stop-color="#EB5757"/>
<stop offset="1" stop-color="#872727"/>
</linearGradient>
<linearGradient id="paint5_linear" x1="1230.72" y1="320.146" x2="1212.6" y2="327.755" gradientUnits="userSpaceOnUse">
<stop stop-color="#FFF8E1"/>
<stop offset="1" stop-color="#FFCC80"/>
</linearGradient>
<linearGradient id="paint6_linear" x1="1243.28" y1="380.08" x2="1231.6" y2="401.359" gradientUnits="userSpaceOnUse">
<stop stop-color="#FFF8E1"/>
<stop offset="1" stop-color="#FFCC80"/>
</linearGradient>
<linearGradient id="paint7_linear" x1="848.393" y1="420.155" x2="1153.89" y2="453.655" gradientUnits="userSpaceOnUse">
<stop offset="0.127122" stop-color="white"/>
<stop offset="0.972261" stop-color="white" stop-opacity="0.8"/>
</linearGradient>
<clipPath id="clip0">
<rect width="48" height="48" fill="white" transform="translate(951 384)"/>
</clipPath>
</defs>
</svg>
